<?xml version="1.0" encoding="iso-8859-1"?>
<!-- Generator: Adobe Illustrator 19.0.0, SVG Export Plug-In . SVG Version: 6.00 Build 0)  -->
<svg version="1.1" id="Layer_1" xmlns="http://www.w3.org/2000/svg" xmlns:xlink="http://www.w3.org/1999/xlink" x="0px" y="0px"
	 viewBox="0 0 512 512" style="enable-background:new 0 0 512 512;" xml:space="preserve">
<circle style="fill:#FFEC97;" cx="255.996" cy="255.996" r="255.996"/>
<path style="fill:#FFDB2D;" d="M512,255.999c0-9.863-0.578-19.588-1.662-29.161l-92.172-92.171
	c-25.483-27.886-85.379-52.281-119.234-42.043c-19.624,5.935-26.968,24.474-28.986,50.966L229.954,103.9
	c-4.226-5.278-9.739-9.115-16.885-11.275C171.145,79.946,89.271,120.378,82.29,154.782c-5.916,29.159,4.216,200.651,60.991,252.273
	l104.812,104.812c2.627,0.079,5.261,0.133,7.908,0.133C397.385,512,512,397.385,512,255.999z"/>
<path style="fill:#394CE2;" d="M213.068,92.625C171.145,79.946,89.271,120.378,82.29,154.782
	c-6.981,34.404,8.377,266.976,96.338,266.976c47.967,0,57.045-85.394,60.037-169.534
	C241.509,172.273,254.024,105.011,213.068,92.625z"/>
<path style="fill:#1B2DDD;" d="M213.068,92.625c-12.12-3.664-27.578-2.885-43.599,0.898v327.352
	c2.963,0.575,6.013,0.882,9.159,0.882c47.967,0,57.045-85.394,60.037-169.534C241.509,172.273,254.025,105.011,213.068,92.625z"/>
<path style="fill:#00CDB3;" d="M176.739,170.397v-38.204h-14.99v38.083c-13.02,10.311-58.168,47.944-74.895,86.542
	c2.731,19.326,6.491,39.481,11.476,58.807c7.041-21.567,38.948-91.844,70.332-118.346c0,0,33.694,26.629,67.149,105.571
	c1.392-16.45,2.254-33.554,2.856-50.629c0.208-5.773,0.467-11.485,0.748-17.115C218.955,205.056,187.464,178.883,176.739,170.397z"
	/>
<path style="fill:#00AD95;" d="M176.739,170.397v-38.204h-7.269v65.765c5.297,4.578,35.917,33.1,66.342,104.894
	c1.392-16.45,2.254-33.554,2.856-50.629c0.208-5.773,0.467-11.485,0.748-17.115C218.955,205.056,187.464,178.883,176.739,170.397z"
	/>
<path style="fill:#394CE2;" d="M298.932,92.625c41.924-12.679,123.798,27.753,130.779,62.157s-8.377,266.976-96.339,266.976
	c-47.967,0-57.045-85.394-60.037-169.534C270.491,172.273,257.975,105.011,298.932,92.625z"/>
<path style="fill:#1B2DDD;" d="M429.71,154.782c-4.963-24.459-47.777-51.957-87.18-61.259v327.352
	C422.399,405.363,436.441,187.955,429.71,154.782z"/>
<path style="fill:#00CDB3;" d="M335.26,170.397v-38.204h14.991v38.083c13.02,10.311,58.168,47.944,74.895,86.542
	c-2.731,19.326-6.491,39.481-11.476,58.807c-7.042-21.567-38.948-91.844-70.332-118.346c0,0-33.694,26.629-67.149,105.571
	c-1.392-16.45-2.254-33.554-2.856-50.629c-0.208-5.773-0.467-11.485-0.748-17.115C293.045,205.056,324.536,178.883,335.26,170.397z"
	/>
<path style="fill:#00AD95;" d="M350.251,170.275v-38.083h-7.721v65.765c0.528-0.456,0.808-0.677,0.808-0.677
	c31.384,26.501,63.291,96.778,70.332,118.346c4.985-19.326,8.745-39.481,11.476-58.807
	C408.419,218.221,363.271,180.587,350.251,170.275z"/>
<g>
</g>
<g>
</g>
<g>
</g>
<g>
</g>
<g>
</g>
<g>
</g>
<g>
</g>
<g>
</g>
<g>
</g>
<g>
</g>
<g>
</g>
<g>
</g>
<g>
</g>
<g>
</g>
<g>
</g>
</svg>
