<?xml version="1.0" encoding="iso-8859-1"?>
<!-- Generator: Adobe Illustrator 19.0.0, SVG Export Plug-In . SVG Version: 6.00 Build 0)  -->
<svg version="1.1" id="Layer_1" xmlns="http://www.w3.org/2000/svg" xmlns:xlink="http://www.w3.org/1999/xlink" x="0px" y="0px"
	 viewBox="0 0 512.349 512.349" style="enable-background:new 0 0 512.349 512.349;" xml:space="preserve">
<g transform="translate(1)">
	<path style="fill:#FFA800;" d="M468.333,341.508H24.6c-9.387,0-17.067-7.68-17.067-17.067v-17.067h494.933
		C502.467,326.148,487.107,341.508,468.333,341.508"/>
	<g>
		<path style="fill:#FFE100;" d="M7.533,307.375c0-58.027,34.133-110.933,34.133-110.933l209.92,50.347l-30.72,60.587H7.533z"/>
		<path style="fill:#FFE100;" d="M220.867,307.375L280.6,187.908c20.48,13.653,48.64,27.307,71.68,38.4
			c23.893,11.093,48.64,18.773,73.387,26.453c36.693,10.24,61.44,29.867,74.24,42.667c4.267,4.267,1.707,11.947-5.12,11.947H220.867
			z"/>
	</g>
	<g>
		<path style="fill:#63D3FD;" d="M425.667,252.761c-11.093-3.413-23.04-6.827-34.133-10.24c0,1.707,0,3.413,0,5.12
			c0,18.773,15.36,34.133,34.133,34.133c12.8,0,23.893-7.68,29.867-17.92C447,259.588,436.76,255.321,425.667,252.761"/>
		<path style="fill:#63D3FD;" d="M336.92,219.481c-19.627-10.24-40.107-20.48-56.32-31.573l-8.533,17.067
			c0,18.773,15.36,34.133,34.133,34.133C319.853,239.108,331.8,230.575,336.92,219.481"/>
		<path style="fill:#63D3FD;" d="M365.933,298.841c0-18.773-15.36-34.133-34.133-34.133s-34.133,15.36-34.133,34.133
			c0,2.56,0.853,5.973,0.853,8.533h65.707C365.08,304.815,365.933,301.401,365.933,298.841"/>
		<path style="fill:#63D3FD;" d="M33.133,210.948c0,0.853,0,1.707,0,2.56c0,18.773,15.36,34.133,34.133,34.133
			s34.133-15.36,34.133-34.133c0-0.853,0-1.707,0-2.56l-59.733-14.507C41.667,196.441,38.253,201.561,33.133,210.948"/>
		<path style="fill:#63D3FD;" d="M245.613,245.081l-65.707-16.213c-0.853,3.413-1.707,6.827-1.707,10.24
			c0,18.773,15.36,34.133,34.133,34.133C229.4,273.241,243.053,261.295,245.613,245.081"/>
		<path style="fill:#63D3FD;" d="M127,273.241c-18.773,0-34.133,15.36-34.133,34.133h68.267
			C161.133,288.601,145.773,273.241,127,273.241"/>
	</g>
	<g>
		<path style="fill:#FFA800;" d="M400.067,252.761c36.693,10.24,61.44,29.867,74.24,42.667c4.267,4.267,1.707,11.947-5.12,11.947
			h25.6c5.973,0,9.387-7.68,5.12-11.947c-12.8-12.8-37.547-33.28-74.24-42.667H400.067z"/>
		<path style="fill:#FFA800;" d="M476.867,307.375c0,18.773-15.36,34.133-34.133,34.133h25.6c18.773,0,34.133-15.36,34.133-34.133
			H476.867z"/>
	</g>
	<g>
		<path style="fill:#FFFFFF;" d="M41.667,196.441c0,0-34.133,53.76-34.133,110.933h25.6c0-46.933,22.187-90.453,30.72-105.813
			L41.667,196.441z"/>
		<path style="fill:#FFFFFF;" d="M33.133,324.441v-17.067h-25.6v17.067c0,9.387,7.68,17.067,17.067,17.067h25.6
			C40.813,341.508,33.133,333.828,33.133,324.441"/>
	</g>
	<path d="M220.867,315.908H7.533c-5.12,0-8.533-3.413-8.533-8.533c0-59.733,34.133-113.493,35.84-115.2
		c1.707-3.413,5.12-5.12,8.533-4.267l209.92,50.347c2.56,0.853,4.267,2.56,5.973,5.12c0.853,2.56,0.853,5.12,0,7.68l-30.72,60.587
		C226.84,314.201,224.28,315.908,220.867,315.908z M16.067,298.841h199.68l23.04-46.08L45.933,205.828
		C38.253,219.481,18.627,257.881,16.067,298.841z"/>
	<path d="M495.64,315.908H220.867c-2.56,0-5.973-1.707-7.68-4.267c-1.707-2.56-1.707-5.973,0-8.533l59.733-119.467
		c0.853-2.56,3.413-3.413,5.12-4.267c2.56,0,5.12,0,6.827,1.707c17.067,11.093,40.96,23.893,70.827,38.4
		c20.48,9.387,42.667,17.92,72.533,25.6c37.547,10.24,63.147,29.867,78.507,45.227c4.267,4.267,5.973,11.093,3.413,17.067
		C507.587,312.495,501.613,315.908,495.64,315.908z M234.52,298.841h256.853c-11.947-11.093-34.987-29.013-67.413-37.547
		c-29.867-8.533-53.76-17.067-75.093-26.453c-26.453-11.947-47.787-23.893-64.853-34.133L234.52,298.841z"/>
	<path d="M468.333,350.041H24.6c-14.507,0-25.6-11.093-25.6-25.6v-17.067c0-5.12,3.413-8.533,8.533-8.533h494.933
		c5.12,0,8.533,3.413,8.533,8.533C511,331.268,492.227,350.041,468.333,350.041z M16.067,315.908v8.533
		c0,5.12,3.413,8.533,8.533,8.533h443.733c11.093,0,20.48-6.827,23.893-17.067H16.067z"/>
	<path d="M41.667,204.975c-18.773,0-34.133-15.36-34.133-34.133c0-5.12,3.413-8.533,8.533-8.533s8.533,3.413,8.533,8.533
		c0,9.387,7.68,17.067,17.067,17.067c5.12,0,8.533,3.413,8.533,8.533C50.2,201.561,46.787,204.975,41.667,204.975z"/>
	<path d="M425.667,290.308c-23.893,0-42.667-18.773-42.667-42.667c0-2.56,0-4.267,0.853-6.827c0-2.56,1.707-5.12,4.267-5.973
		c2.56-0.853,5.12-1.707,6.827-0.853c11.093,3.413,22.187,6.827,33.28,10.24c10.24,2.56,20.48,6.827,30.72,11.947
		c1.707,0.853,3.413,2.56,4.267,5.12c0.853,2.56,0.853,4.267-0.853,6.827C455.533,281.775,441.027,290.308,425.667,290.308z
		 M400.92,254.468c2.56,10.24,12.8,18.773,24.747,18.773c5.973,0,11.947-2.56,16.213-5.973c-5.973-2.56-11.947-4.267-17.92-5.973
		C416.28,258.735,408.6,256.175,400.92,254.468z"/>
	<path d="M306.2,247.641c-23.893,0-42.667-18.773-42.667-42.667c0-1.707,0-2.56,0.853-3.413l8.533-17.067
		c0.853-2.56,3.413-3.413,5.12-4.267c2.56-0.853,5.12-0.853,6.827,0.853c13.653,9.387,32.427,19.627,55.467,30.72
		c4.267,1.707,5.973,6.827,4.267,11.093C337.773,238.255,322.413,247.641,306.2,247.641z M280.6,206.681
		c0.853,13.653,11.947,23.893,25.6,23.893c6.827,0,13.653-3.413,18.773-7.68c-15.36-7.68-29.013-15.36-40.96-22.187L280.6,206.681z"
		/>
	<path d="M365.08,315.908h-65.707c-4.267,0-7.68-2.56-8.533-5.973c-0.853-4.267-1.707-7.68-1.707-11.093
		c0-23.893,18.773-42.667,42.667-42.667s42.667,18.773,42.667,42.667c0,3.413-0.853,6.827-1.707,11.093
		C371.907,313.348,368.493,315.908,365.08,315.908z M306.2,298.841h51.2c0-14.507-11.093-25.6-25.6-25.6
		S306.2,284.335,306.2,298.841z"/>
	<path d="M67.267,256.175c-23.893,0-42.667-18.773-42.667-42.667c0-0.853,0-1.707,0-2.56s0.853-2.56,0.853-3.413
		c5.12-9.387,8.533-15.36,8.533-15.36c2.56-3.413,5.973-5.12,9.387-4.267l59.733,14.507c3.413,0.853,5.973,4.267,6.827,7.68
		c0,1.707,0,2.56,0,3.413C109.933,237.401,91.16,256.175,67.267,256.175z M41.667,213.508c0,13.653,11.947,25.6,25.6,25.6
		c12.8,0,23.04-9.387,25.6-21.333l-46.933-11.947C45.08,208.388,43.373,210.948,41.667,213.508z"/>
	<path d="M212.333,281.775c-23.893,0-42.667-18.773-42.667-42.667c0-3.413,0.853-7.68,1.707-11.947
		c0.853-4.267,5.973-6.827,10.24-5.973l65.707,16.213c4.267,0.853,6.827,5.12,5.973,10.24
		C250.733,267.268,232.813,281.775,212.333,281.775z M186.733,239.961c0.853,13.653,11.947,24.747,25.6,24.747
		c9.387,0,17.92-5.12,22.187-12.8L186.733,239.961z"/>
	<path d="M161.133,315.908H92.867c-5.12,0-8.533-3.413-8.533-8.533c0-23.893,18.773-42.667,42.667-42.667
		s42.667,18.773,42.667,42.667C169.667,312.495,166.253,315.908,161.133,315.908z M103.107,298.841h48.64
		c-3.413-10.24-12.8-17.067-23.893-17.067S106.52,288.601,103.107,298.841z"/>
</g>
<g>
</g>
<g>
</g>
<g>
</g>
<g>
</g>
<g>
</g>
<g>
</g>
<g>
</g>
<g>
</g>
<g>
</g>
<g>
</g>
<g>
</g>
<g>
</g>
<g>
</g>
<g>
</g>
<g>
</g>
</svg>
